<?xml version="1.0" encoding="UTF-8"?>
<svg version="1.1" viewBox="0 0 178 178" xmlns="http://www.w3.org/2000/svg">
  <defs>
    <linearGradient id="gradient" x1="0" x2="1" y1="0" y2="1">
      <stop stop-color="#f80" offset="0"/>
      <stop stop-color="#ffc" offset="1"/>
    </linearGradient>
  </defs>
  <g transform="translate(-5.5611 -4.1697)">
    <path d="m18.409 8.0083c-0.61167 0.67853 0.7096 2.807 1.2323 3.661 2.3559 3.829 3.0854 7.2985 2.7824 14.253-0.3171 7.277-1.6881 14.513-4.1855 22.092-2.3491 7.129-3.0814 12.466-2.7305 19.908 0.18364 15.619 10.011 24.64 15.68 28.888 1.3836-5.2614 1.9621-17.75 2.5925-26.527 0.63038-8.7762-0.66446-17.187-1.1719-25.312-1.432-23.409-5.5513-35.578-12.742-37.102-0.55859-0.15811-1.0747-0.20397-1.458 0.13954z" fill="#011"/>
    <path d="m156.82 14.891c-3.3177 3.876-5.0507 11.854-4.377 20.152 0.16086 9.8648 0.21909 18.52 0.21147 24.932-8e-3 6.5504 4.4072 33.228 4.5636 34.503 6.3578-2.4146 13.981-16.19 13.709-21.089 1.0765-8.303-0.20678-17.087-4.6387-31.758-3.5263-11.673-3.8159-13.137-3.6738-21.564s6.0966-8.8993 6.1984-10.501c0.0509-0.80073-1.9657-0.7298-4.6732 0.45524-2.7074 1.185-6.1058 3.4842-7.3202 4.8697z" fill="#011"/>
    <path id="laptop-back" d="m28.791 140.3-2e-3 5.377c-9.608 11.496-14.867 16.94-22.066 27.662-0.0026 1.3681 2.0655 3.262 4.9141 4.5 2.2448 0.95704 161.87 1.0217 164.54 0.0664 2.8936-1.0348 6.218-3.5915 6.209-4.7734-3.99-7.978-15.903-17.822-22.055-27.457l-2e-3 -5.375h-131.54z" fill="#155"/>
    <path id="laptop-lower" d="m6.7261 173.16c0.00336-0.594 0.74938-1.944 1.6578-3 6.4731-8.2507 14.347-16.385 20.002-24.24h132.35c5.9951 7.8823 12.865 15.62 18.442 22.421 1.7727 2.1676 3.2232 4.3816 3.2232 4.92v0.97896h-175.68l0.00613-1.08zm103.92-10.512h-37.785c-1.1087 2.7329-2.4804 5.5974-3.0049 8.4167 15.406 0.4359 27.356 1.1037 41.294 0.0524 0.11996-3.0341-0.26321-6.0622-0.50443-8.469zm53.298-2.3584c-2.2924-4.3967-4.847-7.2803-8.0567-11.49h-122.75c-2.493 3.806-6.2545 7.381-7.9486 11.498 0.43973 0.7115 138.31 0.70395 138.75-8e-3z" fill="#011"/>
    <rect id="laptop-higher" x="32.6" y="56" width="123.8" height="84.5" fill="url(#gradient)" stroke="#011" stroke-width="7.7"/>
    <path id="grin" d="m94.796 131.22c-6.5763-0.39646-13.039-1.2201-19.44-2.6561-0.15222-4.0958-0.35277-8.548-0.572-12.571-0.95585 0.74877-3.5522 8.3108-5.759 11.207-13.071-8.4337-19.456-13.589-20.299-35.04 12.751 10.26 23.478 14.499 37.229 15.622 1.1417 3.8242 1.326 9.2303 2.8036 12.847 2.3548-3.9627 3.3111-8.273 4.2566-12.961 4.806-0.50229 10.196-1.1391 15.962-1.939 1.4396 3.3583 2.1409 8.1029 4.8719 10.978 0.74108-3.8075 0.37285-6.1468 0.38695-11.962 10.436-2.5946 18.542-8.8347 22.256-16.703 3.5029 8.6285-0.90772 21.55-4.0569 29.147-2.582-1.5093-5.3874-3.1562-7.6548-4.4914 0.8273 2.8071 2.3905 5.5145 3.219 7.8087-0.84779 1.4597-11.863 8.2586-16.492 9.5682-3.8468-4.456-5.5035-6.711-8.0715-11.273-0.37992 4.0761-0.0168 8.4426 0.56328 12.077-0.30369 0.30369-5.8435 0.50977-9.2033 0.34235zm19.067-39.803c-5.2775 0.48269-12.164-0.83872-15.023-4.8767 4.352-0.84234 8.9346-1.3226 13.1-2.5544-0.28472-6.2377-0.77529-15.313 0.0822-18.179 3.2232 4.6863 4.8714 9.5924 6.6292 15.073 1.3438-0.14667 7.1027-12.01 8.7281-11.428 0.9544 8.6766-4.1377 17.446-9.235 20.465-0.85553 1.9252-1.0829 6.5958-2.1134 6.7841-0.79317 0.03362-1.6255-4.1599-2.1682-5.2837zm-44.44 2.1791c-1.5604-2.4219-2.3262-3.1024-4.8428-4.3035-7.5099-5.1914-10.161-9.5113-10.472-17.532 3.3356 3.6543 7.5854 6.9055 10.928 9.4372 0.61361-4.1478 2.3234-12.759 3.3634-12.745 1.7018 3.3292 1.2477 10.37 3.1626 14.883 3.3715 1.9727 9.7956 3.838 10.38 4.0181-2.5594 2.28-5.1889 3.1086-9.3002 3.5404-0.11086 1.865-0.45046 3.8169-1.0616 5.582-0.16721-0.0024-1.1381-1.2988-2.1575-2.881z" fill="#400"/>
  </g>
</svg>
